<?xml version="1.0" encoding="utf-8"?>
<!-- Generator: Adobe Illustrator 16.0.3, SVG Export Plug-In . SVG Version: 6.00 Build 0)  -->
<!DOCTYPE svg PUBLIC "-//W3C//DTD SVG 1.1//EN" "http://www.w3.org/Graphics/SVG/1.1/DTD/svg11.dtd">
<svg version="1.1" id="Ebene_1" xmlns="http://www.w3.org/2000/svg" xmlns:xlink="http://www.w3.org/1999/xlink" x="0px" y="0px"
	 width="983.582px" height="695.533px" viewBox="0 0 983.582 695.533" enable-background="new 0 0 983.582 695.533"
	 xml:space="preserve">
<g>
	
		<line fill="none" stroke="#000000" stroke-width="1.1213" stroke-linecap="round" stroke-linejoin="round" stroke-miterlimit="10" x1="696.661" y1="173.725" x2="698.596" y2="227.956"/>
	
		<line fill="none" stroke="#000000" stroke-width="1.1213" stroke-linecap="round" stroke-linejoin="round" stroke-miterlimit="10" x1="696.661" y1="173.725" x2="566.274" y2="227.956"/>
	
		<line fill="none" stroke="#000000" stroke-width="1.1213" stroke-linecap="round" stroke-linejoin="round" stroke-miterlimit="10" x1="861.767" y1="242.261" x2="770.568" y2="188.617"/>
	
		<polyline fill="none" stroke="#000000" stroke-width="1.1213" stroke-linecap="round" stroke-linejoin="round" stroke-miterlimit="10" points="
		695.244,390.297 623.715,316.177 710.369,316.177 	"/>
	
		<line fill="none" stroke="#000000" stroke-width="1.1213" stroke-linecap="round" stroke-linejoin="round" stroke-miterlimit="10" x1="558.972" y1="291.143" x2="625.132" y2="316.177"/>
	
		<polygon fill="none" stroke="#000000" stroke-width="1.1213" stroke-linecap="round" stroke-linejoin="round" stroke-miterlimit="10" points="
		861.767,309.914 861.767,242.261 815.273,248.224 770.568,188.617 696.661,173.725 625.132,221.403 566.274,227.956 
		558.972,291.143 626.016,221.789 625.413,315.85 656.588,267.316 698.596,227.956 755.068,264.317 788.896,341.502 	"/>
	
		<polyline fill="none" stroke="#000000" stroke-width="1.1213" stroke-linecap="round" stroke-linejoin="round" stroke-miterlimit="10" points="
		755.068,264.317 815.273,248.224 788.896,341.502 696.661,390.297 710.369,316.177 656.125,268.492 755.068,264.317 	"/>
	
		<line fill="none" stroke="#000000" stroke-width="1.1213" stroke-linecap="round" stroke-linejoin="round" stroke-miterlimit="10" x1="861.767" y1="309.914" x2="815.273" y2="248.224"/>
	
		<polyline fill="none" stroke="#000000" stroke-width="1.1213" stroke-linecap="round" stroke-linejoin="round" stroke-miterlimit="10" points="
		656.125,268.492 625.132,221.403 698.596,227.956 770.568,188.617 	"/>
	
		<polyline fill="none" stroke="#000000" stroke-width="1.1213" stroke-linecap="round" stroke-linejoin="round" stroke-miterlimit="10" points="
		788.896,341.502 710.369,316.177 755.068,264.317 	"/>
</g>
<g>
	<circle cx="566.274" cy="228.555" r="10.431"/>
	<circle cx="861.767" cy="242.261" r="10.431"/>
	<circle cx="698.596" cy="227.919" r="20.441"/>
	<circle cx="770.568" cy="188.617" r="9.275"/>
	<circle cx="626.245" cy="221.602" r="9.275"/>
	<circle cx="789.02" cy="341.624" r="22.757"/>
</g>
<path d="M227.551,347.486c17.875,0,30.791,6.193,42.824,16.457c1.414,1.412,1.592,3.539,0.173,4.953
	c-1.591,1.59-3.534,3.361-4.953,4.953c-1.59,1.77-2.651,1.597-4.601-0.174c-9.024-7.963-21.761-13.804-33.616-13.804
	c-27.958,0-49.195,23.357-49.195,50.78c0,27.251,21.237,51.14,49.195,51.14c19.46,0,31.845-7.433,31.845-7.433v-24.771h-20.348
	c-1.943,0-3.361-1.419-3.361-3.182v-6.552c0-1.948,1.418-3.361,3.361-3.361h30.611c1.771,0,3.19,1.592,3.19,3.361v40.523
	c0,0.884-0.71,2.296-1.419,2.826c0,0-18.047,11.682-43.707,11.682c-35.386,0-63.875-28.133-63.875-63.523
	C163.677,375.977,192.166,347.486,227.551,347.486z"/>
<path d="M325.16,400.568c18.578,0,32.023,13.805,32.023,32.382c0,1.239-0.178,3.54-0.351,4.78c-0.179,1.764-1.592,3.004-3.189,3.004
	h-50.959c0.709,11.854,11.152,23.007,23.709,23.007c7.433,0,13.453-2.832,17.523-5.311c2.473-1.42,3.534-2.302,4.953-0.353
	c1.061,1.412,1.943,2.652,3.004,4.064c1.241,1.599,1.949,2.658-0.704,4.603c-4.249,3.361-13.803,8.141-26.009,8.141
	c-21.416,0-34.682-16.808-34.682-37.155C290.478,417.734,303.744,400.568,325.16,400.568z M344.977,430.828
	c-0.531-10.264-9.023-19.466-19.817-19.466c-11.855,0-21.057,8.492-22.298,19.466H344.977z"/>
<path d="M377.768,352.619c0-1.771,1.418-3.361,3.361-3.361h45.827c21.237,0,38.574,16.628,38.574,37.686
	c0,16.276-10.794,29.902-26.188,36.095l24.246,44.946c1.234,2.3,0,5.131-3.01,5.131h-9.023c-1.592,0-2.48-0.882-2.832-1.591
	l-23.536-46.889h-33.794v45.118c0,1.771-1.591,3.361-3.361,3.361h-6.902c-1.943,0-3.361-1.591-3.361-3.361V352.619z
	 M426.075,412.954c13.625,0,25.48-11.324,25.48-25.832c0-13.446-11.855-24.95-25.48-24.95h-34.332v50.782H426.075z"/>
<path d="M487.292,352.619c0-1.771,1.418-3.361,3.182-3.361h39.635c34.152,0,62.111,27.779,62.111,61.752
	c0,34.325-27.959,62.105-62.111,62.105h-39.635c-1.763,0-3.182-1.591-3.182-3.361V352.619z M527.285,460.909
	c29.015,0,50.07-20.705,50.07-49.899c0-29.02-21.056-49.726-50.07-49.726h-26.547v99.625H527.285z"/>
<path d="M617.98,352.619c0-1.771,1.59-3.361,3.361-3.361h7.08c1.771,0,3.361,1.591,3.361,3.361v117.135
	c0,1.771-1.591,3.361-3.361,3.361h-7.08c-1.771,0-3.361-1.591-3.361-3.361V352.619z"/>
</svg>
