<?xml version="1.0" encoding="UTF-8" standalone="no"?>
<!-- Generator: Adobe Illustrator 16.0.3, SVG Export Plug-In . SVG Version: 6.00 Build 0)  -->

<svg
   xmlns:dc="http://purl.org/dc/elements/1.1/"
   xmlns:cc="http://creativecommons.org/ns#"
   xmlns:rdf="http://www.w3.org/1999/02/22-rdf-syntax-ns#"
   xmlns:svg="http://www.w3.org/2000/svg"
   xmlns="http://www.w3.org/2000/svg"
   xmlns:sodipodi="http://sodipodi.sourceforge.net/DTD/sodipodi-0.dtd"
   xmlns:inkscape="http://www.inkscape.org/namespaces/inkscape"
   version="1.1"
   id="Ebene_1"
   x="0px"
   y="0px"
   width="200.37778mm"
   height="85.513336mm"
   viewBox="0 0 710.00002 302.99999"
   enable-background="new 0 0 983.582 695.533"
   xml:space="preserve"
   inkscape:version="0.91 r13725"
   sodipodi:docname="GeRDI-Logo.svg"><metadata
     id="metadata3513"><rdf:RDF><cc:Work
         rdf:about=""><dc:format>image/svg+xml</dc:format><dc:type
           rdf:resource="http://purl.org/dc/dcmitype/StillImage" /><dc:title></dc:title></cc:Work></rdf:RDF></metadata><defs
     id="defs3511" /><sodipodi:namedview
     pagecolor="#ffffff"
     bordercolor="#666666"
     borderopacity="1"
     objecttolerance="10"
     gridtolerance="10"
     guidetolerance="10"
     inkscape:pageopacity="0"
     inkscape:pageshadow="2"
     inkscape:window-width="2560"
     inkscape:window-height="1413"
     id="namedview3509"
     showgrid="false"
     showguides="true"
     inkscape:guide-bbox="true"
     units="mm"
     inkscape:zoom="1.7612392"
     inkscape:cx="491.79099"
     inkscape:cy="211.49882"
     inkscape:window-x="1920"
     inkscape:window-y="0"
     inkscape:window-maximized="1"
     inkscape:current-layer="Ebene_1"><sodipodi:guide
       position="788.08152,303.19561"
       orientation="0,1"
       id="guide3515" /><sodipodi:guide
       position="710.29538,278.2132"
       orientation="1,0"
       id="guide3517" /></sodipodi:namedview><g
     id="g3463"
     transform="translate(-162.33462,-172.53024)"><line
       stroke-miterlimit="10"
       x1="696.66101"
       y1="173.72501"
       x2="698.59601"
       y2="227.95599"
       id="line3465"
       style="fill:none;stroke:#000000;stroke-width:1.12129998;stroke-linecap:round;stroke-linejoin:round;stroke-miterlimit:10" /><line
       stroke-miterlimit="10"
       x1="696.66101"
       y1="173.72501"
       x2="566.27399"
       y2="227.95599"
       id="line3467"
       style="fill:none;stroke:#000000;stroke-width:1.12129998;stroke-linecap:round;stroke-linejoin:round;stroke-miterlimit:10" /><line
       stroke-miterlimit="10"
       x1="861.76703"
       y1="242.261"
       x2="770.56799"
       y2="188.617"
       id="line3469"
       style="fill:none;stroke:#000000;stroke-width:1.12129998;stroke-linecap:round;stroke-linejoin:round;stroke-miterlimit:10" /><polyline
       stroke-miterlimit="10"
       points="   695.244,390.297 623.715,316.177 710.369,316.177  "
       id="polyline3471"
       style="fill:none;stroke:#000000;stroke-width:1.12129998;stroke-linecap:round;stroke-linejoin:round;stroke-miterlimit:10" /><line
       stroke-miterlimit="10"
       x1="558.97198"
       y1="291.14301"
       x2="625.13202"
       y2="316.177"
       id="line3473"
       style="fill:none;stroke:#000000;stroke-width:1.12129998;stroke-linecap:round;stroke-linejoin:round;stroke-miterlimit:10" /><polygon
       stroke-miterlimit="10"
       points="566.274,227.956 558.972,291.143 626.016,221.789 625.413,315.85 656.588,267.316 698.596,227.956 755.068,264.317 788.896,341.502 861.767,309.914 861.767,242.261 815.273,248.224 770.568,188.617 696.661,173.725 625.132,221.403 "
       id="polygon3475"
       style="fill:none;stroke:#000000;stroke-width:1.12129998;stroke-linecap:round;stroke-linejoin:round;stroke-miterlimit:10" /><polyline
       stroke-miterlimit="10"
       points="   755.068,264.317 815.273,248.224 788.896,341.502 696.661,390.297 710.369,316.177 656.125,268.492 755.068,264.317  "
       id="polyline3477"
       style="fill:none;stroke:#000000;stroke-width:1.12129998;stroke-linecap:round;stroke-linejoin:round;stroke-miterlimit:10" /><line
       stroke-miterlimit="10"
       x1="861.76703"
       y1="309.914"
       x2="815.27301"
       y2="248.224"
       id="line3479"
       style="fill:none;stroke:#000000;stroke-width:1.12129998;stroke-linecap:round;stroke-linejoin:round;stroke-miterlimit:10" /><polyline
       stroke-miterlimit="10"
       points="   656.125,268.492 625.132,221.403 698.596,227.956 770.568,188.617  "
       id="polyline3481"
       style="fill:none;stroke:#000000;stroke-width:1.12129998;stroke-linecap:round;stroke-linejoin:round;stroke-miterlimit:10" /><polyline
       stroke-miterlimit="10"
       points="   788.896,341.502 710.369,316.177 755.068,264.317  "
       id="polyline3483"
       style="fill:none;stroke:#000000;stroke-width:1.12129998;stroke-linecap:round;stroke-linejoin:round;stroke-miterlimit:10" /></g><g
     id="g3485"
     transform="translate(-162.33462,-172.53024)"><circle
       cx="566.27399"
       cy="228.55499"
       r="10.431"
       id="circle3487" /><circle
       cx="861.76703"
       cy="242.261"
       r="10.431"
       id="circle3489" /><circle
       cx="698.59601"
       cy="227.91901"
       r="20.441"
       id="circle3491" /><circle
       cx="770.56799"
       cy="188.617"
       r="9.2749996"
       id="circle3493" /><circle
       cx="626.245"
       cy="221.60201"
       r="9.2749996"
       id="circle3495" /><circle
       cx="789.02002"
       cy="341.62399"
       r="22.757"
       id="circle3497" /></g><path
     d="m 65.216383,174.95576 c 17.875,0 30.791,6.193 42.823997,16.457 1.414,1.412 1.592,3.539 0.173,4.953 -1.591,1.59 -3.534,3.361 -4.953,4.953 -1.59,1.77 -2.651,1.597 -4.600994,-0.174 -9.024003,-7.963 -21.761003,-13.804 -33.616003,-13.804 -27.958,0 -49.195,23.357 -49.195,50.78 0,27.251 21.237,51.14 49.195,51.14 19.46,0 31.845003,-7.433 31.845003,-7.433 l 0,-24.771 -20.348003,0 c -1.943,0 -3.361,-1.419 -3.361,-3.182 l 0,-6.552 c 0,-1.948 1.418,-3.361 3.361,-3.361 l 30.610997,0 c 1.771,0 3.19,1.592 3.19,3.361 l 0,40.523 c 0,0.884 -0.71,2.296 -1.419,2.826 0,0 -18.046997,11.682 -43.706997,11.682 -35.386,0 -63.8750001,-28.133 -63.8750001,-63.523 0.002,-35.384 28.4910001,-63.875 63.8760001,-63.875 z"
     id="path3499"
     inkscape:connector-curvature="0" /><path
     d="m 162.82538,228.03776 c 18.578,0 32.023,13.805 32.023,32.382 0,1.239 -0.178,3.54 -0.351,4.78 -0.179,1.764 -1.592,3.004 -3.189,3.004 l -50.959,0 c 0.709,11.854 11.152,23.007 23.709,23.007 7.433,0 13.453,-2.832 17.523,-5.311 2.473,-1.42 3.534,-2.302 4.953,-0.353 1.061,1.412 1.943,2.652 3.004,4.064 1.241,1.599 1.949,2.658 -0.704,4.603 -4.249,3.361 -13.803,8.141 -26.009,8.141 -21.416,0 -34.682,-16.808 -34.682,-37.155 0,-19.996 13.266,-37.162 34.682,-37.162 z m 19.817,30.26 c -0.531,-10.264 -9.023,-19.466 -19.817,-19.466 -11.855,0 -21.057,8.492 -22.298,19.466 l 42.115,0 z"
     id="path3501"
     inkscape:connector-curvature="0" /><path
     d="m 215.43338,180.08876 c 0,-1.771 1.418,-3.361 3.361,-3.361 l 45.827,0 c 21.237,0 38.574,16.628 38.574,37.686 0,16.276 -10.794,29.902 -26.188,36.095 l 24.246,44.946 c 1.234,2.3 0,5.131 -3.01,5.131 l -9.023,0 c -1.592,0 -2.48,-0.882 -2.832,-1.591 l -23.536,-46.889 -33.794,0 0,45.118 c 0,1.771 -1.591,3.361 -3.361,3.361 l -6.902,0 c -1.943,0 -3.361,-1.591 -3.361,-3.361 l 0,-117.135 z m 48.307,60.335 c 13.625,0 25.48,-11.324 25.48,-25.832 0,-13.446 -11.855,-24.95 -25.48,-24.95 l -34.332,0 0,50.782 34.332,0 z"
     id="path3503"
     inkscape:connector-curvature="0" /><path
     d="m 324.95738,180.08876 c 0,-1.771 1.418,-3.361 3.182,-3.361 l 39.635,0 c 34.152,0 62.111,27.779 62.111,61.752 0,34.325 -27.959,62.105 -62.111,62.105 l -39.635,0 c -1.763,0 -3.182,-1.591 -3.182,-3.361 l 0,-117.135 z m 39.993,108.29 c 29.015,0 50.07,-20.705 50.07,-49.899 0,-29.02 -21.056,-49.726 -50.07,-49.726 l -26.547,0 0,99.625 26.547,0 z"
     id="path3505"
     inkscape:connector-curvature="0" /><path
     d="m 455.64538,180.08876 c 0,-1.771 1.59,-3.361 3.361,-3.361 l 7.08,0 c 1.771,0 3.361,1.591 3.361,3.361 l 0,117.135 c 0,1.771 -1.591,3.361 -3.361,3.361 l -7.08,0 c -1.771,0 -3.361,-1.591 -3.361,-3.361 l 0,-117.135 z"
     id="path3507"
     inkscape:connector-curvature="0" /></svg>